<svg width="64" height="64" viewBox="0 0 64 64" fill="none" xmlns="http://www.w3.org/2000/svg">
<path d="M21.33 37L13 45.35C12.7998 45.5509 12.5448 45.6882 12.2668 45.7448C11.9889 45.8013 11.7004 45.7744 11.4377 45.6676C11.1749 45.5608 10.9496 45.3788 10.7899 45.1444C10.6302 44.91 10.5433 44.6336 10.54 44.35V42.12C10.54 41.075 10.1249 40.0729 9.38603 39.334C8.64714 38.5951 7.64499 38.18 6.60003 38.18C5.55508 38.18 4.55293 38.5951 3.81403 39.334C3.07514 40.0729 2.66003 41.075 2.66003 42.12V57.32C2.67552 58.3601 3.0956 59.3533 3.83116 60.0889C4.56673 60.8244 5.55991 61.2445 6.60003 61.26H21.8C22.845 61.26 23.8471 60.8449 24.586 60.106C25.3249 59.3671 25.74 58.3649 25.74 57.32C25.74 56.275 25.3249 55.2729 24.586 54.534C23.8471 53.7951 22.845 53.38 21.8 53.38H19.56C19.2764 53.3768 19.0001 53.2899 18.7657 53.1302C18.5313 52.9705 18.3492 52.7451 18.2424 52.4824C18.1356 52.2196 18.1088 51.9312 18.1653 51.6532C18.2218 51.3753 18.3591 51.1202 18.56 50.92L26.92 42.56C27.6559 41.8199 28.0689 40.8186 28.0689 39.775C28.0689 38.7313 27.6559 37.7301 26.92 36.99C26.1715 36.2614 25.1676 35.8546 24.123 35.8565C23.0784 35.8583 22.076 36.2687 21.33 37Z" fill="#31c3e0" id="id_101"></path>
<path d="M57.12 2.84009H41.91C41.3926 2.84009 40.8803 2.942 40.4023 3.14C39.9242 3.33801 39.4899 3.62822 39.124 3.99409C38.7582 4.35995 38.468 4.79429 38.2699 5.27232C38.0719 5.75034 37.97 6.26268 37.97 6.78009C37.97 7.2975 38.0719 7.80984 38.2699 8.28786C38.468 8.76588 38.7582 9.20023 39.124 9.56609C39.4899 9.93195 39.9242 10.2222 40.4023 10.4202C40.8803 10.6182 41.3926 10.7201 41.91 10.7201H44.13C44.4116 10.7252 44.6855 10.8128 44.9178 10.972C45.1501 11.1311 45.3307 11.3549 45.4371 11.6157C45.5435 11.8764 45.5711 12.1626 45.5166 12.4389C45.462 12.7152 45.3276 12.9694 45.13 13.1701L36.77 21.5301C36.0301 22.2687 35.6139 23.271 35.6129 24.3166C35.612 25.3621 36.0264 26.3651 36.765 27.1051C37.5037 27.845 38.506 28.2613 39.5515 28.2622C40.597 28.2631 41.6001 27.8487 42.34 27.1101L50.7 18.7501C50.9002 18.5492 51.1553 18.4118 51.4333 18.3553C51.7112 18.2988 51.9996 18.3257 52.2624 18.4325C52.5252 18.5393 52.7505 18.7213 52.9102 18.9557C53.0699 19.1901 53.1568 19.4665 53.16 19.7501V22.0001C53.1331 22.5335 53.215 23.0669 53.4006 23.5677C53.5862 24.0685 53.8717 24.5264 54.2397 24.9135C54.6078 25.3005 55.0507 25.6087 55.5415 25.8193C56.0324 26.0299 56.5609 26.1385 57.095 26.1385C57.6292 26.1385 58.1577 26.0299 58.6485 25.8193C59.1394 25.6087 59.5823 25.3005 59.9503 24.9135C60.3184 24.5264 60.6039 24.0685 60.7895 23.5677C60.9751 23.0669 61.0569 22.5335 61.03 22.0001V6.78009C61.0327 5.73951 60.6226 4.74036 59.8896 4.00175C59.1566 3.26314 58.1606 2.84538 57.12 2.84009V2.84009Z" fill="#30bfdb" id="id_102"></path>
</svg>