<svg id="Layer_1" data-name="Layer 1" xmlns="http://www.w3.org/2000/svg" viewBox="0 0 64 64"><path d="M17.488,27.772a1,1,0,0,0-1,1V41.684a1,1,0,0,0,2,0V28.772A1,1,0,0,0,17.488,27.772Z" id="id_101" style="fill: rgb(46, 170, 220);"></path><path d="M23.022,27.772a1,1,0,0,0-1,1V41.684a1,1,0,0,0,2,0V28.772A1,1,0,0,0,23.022,27.772Z" id="id_102" style="fill: rgb(49, 167, 222);"></path><path d="M53.146,47.863V37.044c0-5.526-6.717-9.723-9.274-11.121l1.015-1.749a2.271,2.271,0,0,0,.008-2.3,2.226,2.226,0,0,0-1.916-1.13,1.9,1.9,0,0,0-.4.047V18.434a2.127,2.127,0,0,0-2.125-2.125H31.2V14.1a2.93,2.93,0,0,0-2.927-2.928H23.311A2.931,2.931,0,0,0,20.383,14.1v2.209H11.125A2.127,2.127,0,0,0,9,18.434v2.9a2.121,2.121,0,0,0,1.835,2.1V46.544A2.622,2.622,0,0,0,12.3,48.889v.5a3.438,3.438,0,0,0,3.434,3.434H52.5a2.528,2.528,0,0,0,.649-4.965ZM25.868,37.285v9.874L13.5,47.168c-.04-.008-.08-.013-.12-.017a.6.6,0,0,1-.545-.607V23.455h20.9a3.721,3.721,0,0,0,.217.518l1.209,2.182a24.047,24.047,0,0,0-7.407,6.033A8.556,8.556,0,0,0,25.868,37.285Zm17.111-14.54a.228.228,0,0,1,.18.125.286.286,0,0,1,0,.3l0,0-1.264,2.18-4.783.193-1.4-2.532a1.593,1.593,0,0,1-.2-.633,1.514,1.514,0,0,1,.779-1.451,1.333,1.333,0,0,1,.622-.148,2.16,2.16,0,0,1,.226.013l3.026.524a.328.328,0,0,1,.233.19,2.243,2.243,0,0,0,.479.654l.008.006.009.009a.655.655,0,0,0,.081.057,2.459,2.459,0,0,0,1.859.542C42.868,22.771,42.944,22.752,42.979,22.745ZM22.383,14.1a.929.929,0,0,1,.928-.928h4.957a.928.928,0,0,1,.927.928v2.209H22.383ZM11,18.434a.13.13,0,0,1,.125-.125H21.363c.007,0,.013,0,.02,0H30.2c.007,0,.013,0,.02,0H40.452a.129.129,0,0,1,.125.125v.927l-.064-.013-3.073-.531a3.366,3.366,0,0,0-2.069.334,3.433,3.433,0,0,0-.561.376c-.045.036-.088.073-.13.111a3.377,3.377,0,0,0-.429.45c-.009.011-.02.021-.029.032a3.566,3.566,0,0,0-.341.562c-.025.05-.047.1-.07.153a3.6,3.6,0,0,0-.193.557c-.005.021-.016.041-.021.063H11.125A.131.131,0,0,1,11,21.33Zm3.3,30.96v-.236H24.3a2.555,2.555,0,0,0-.282,1.157,2.48,2.48,0,0,0,.053.513H15.736A1.435,1.435,0,0,1,14.3,49.394Zm38.2,1.434H26.518a.518.518,0,0,1-.5-.549.508.508,0,0,1,.5-.513h.35a1,1,0,0,0,1-1V37.285a6.629,6.629,0,0,1,1.491-3.906c2.3-3.111,6.516-5.358,7.428-5.82l5.479-.221c1.372.7,8.88,4.76,8.88,9.706V48.766a1,1,0,0,0,1,1H52.5a.512.512,0,0,1,.5.549A.5.5,0,0,1,52.5,50.828Z" id="id_103" style="fill: rgb(48, 165, 219);"></path><path d="M39.76,36.417,40,36l1.932,3.346a1,1,0,1,0,1.732-1l-2.8-4.846a1.04,1.04,0,0,0-1.732,0l-1.107,1.917a1,1,0,0,0,1.733,1Z" id="id_104" style="fill: rgb(51, 166, 219);"></path><path d="M45.186,40.981a1,1,0,0,0-1.733,1l.011.019H39.411a1,1,0,0,0,0,2H45.2a1,1,0,0,0,.866-1.5Z" id="id_105" style="fill: rgb(44, 166, 222);"></path><path d="M37.546,38.25a1,1,0,0,0-1.366.366L33.938,42.5A1,1,0,0,0,34.8,44h1.821a1,1,0,0,0,0-2h-.089l1.376-2.384A1,1,0,0,0,37.546,38.25Z" id="id_106" style="fill: rgb(45, 167, 224);"></path></svg>