<svg width="24" height="24" viewBox="0 0 24 24" fill="none" xmlns="http://www.w3.org/2000/svg">
<path d="M18 21C17.7348 21 17.4804 20.8946 17.2929 20.7071C17.1054 20.5196 17 20.2652 17 20C17 18.6739 16.4732 17.4021 15.5355 16.4645C14.5979 15.5268 13.3261 15 12 15C10.6739 15 9.40215 15.5268 8.46447 16.4645C7.52678 17.4021 7 18.6739 7 20C7 20.2652 6.89464 20.5196 6.70711 20.7071C6.51957 20.8946 6.26522 21 6 21C5.73478 21 5.48043 20.8946 5.29289 20.7071C5.10536 20.5196 5 20.2652 5 20C5 18.1435 5.7375 16.363 7.05025 15.0503C8.36301 13.7375 10.1435 13 12 13C13.8565 13 15.637 13.7375 16.9497 15.0503C18.2625 16.363 19 18.1435 19 20C19 20.2652 18.8946 20.5196 18.7071 20.7071C18.5196 20.8946 18.2652 21 18 21ZM12 11C11.2089 11 10.4355 10.7654 9.77772 10.3259C9.11992 9.88635 8.60723 9.26164 8.30448 8.53074C8.00173 7.79983 7.92252 6.99556 8.07686 6.21964C8.2312 5.44372 8.61216 4.73098 9.17157 4.17157C9.73098 3.61216 10.4437 3.2312 11.2196 3.07686C11.9956 2.92252 12.7998 3.00173 13.5307 3.30448C14.2616 3.60723 14.8864 4.11992 15.3259 4.77772C15.7654 5.43552 16 6.20888 16 7C15.9987 8.06046 15.5768 9.07711 14.827 9.82697C14.0771 10.5768 13.0605 10.9987 12 11V11ZM12 5C11.6044 5 11.2178 5.1173 10.8889 5.33706C10.56 5.55683 10.3036 5.86918 10.1522 6.23464C10.0009 6.60009 9.96126 7.00222 10.0384 7.39018C10.1156 7.77814 10.3061 8.13451 10.5858 8.41422C10.8655 8.69392 11.2219 8.8844 11.6098 8.96157C11.9978 9.03874 12.3999 8.99914 12.7654 8.84776C13.1308 8.69639 13.4432 8.44004 13.6629 8.11114C13.8827 7.78224 14 7.39556 14 7C14 6.46957 13.7893 5.96086 13.4142 5.58579C13.0391 5.21072 12.5304 5 12 5Z" fill="#2eaadc" id="id_101"></path>
</svg>